<?xml version="1.0" encoding="UTF-8"?><svg xmlns="http://www.w3.org/2000/svg" class="header" enable-background="new 0 0 211 47" fill="none" height="40px" preserveAspectRatio="xMidYMid meet" viewBox="0 0 211 47" width="180px"><g clip-path="url(#clip0_2640_228734)"><path d="M29.9964 42.4734H7.76025C3.48216 42.4734 0 38.9912 0 34.6965V12.4604C0 8.18236 3.48216 4.7002 7.76025 4.7002H29.9964C34.291 4.7002 37.7566 8.18236 37.7566 12.4604V34.6965C37.7732 38.9912 34.291 42.4734 29.9964 42.4734Z" fill="#FDDB32"/><path d="M11.5383 35.1283V31.4637C11.5383 31.1652 11.3061 30.9331 11.0077 30.9331H7.34312C7.04464 30.9331 6.8125 31.1652 6.8125 31.4637V35.1283C6.8125 35.4268 7.04464 35.6589 7.34312 35.6589H11.0077C11.3061 35.6589 11.5383 35.4268 11.5383 35.1283Z" fill="#191E3B"/><path d="M30.9593 31.977V13.9195C30.9593 12.5763 29.8815 11.4985 28.5383 11.4985H10.4808C10.116 11.4985 9.90047 11.6312 9.66833 11.8633L6.07009 15.4947C5.80478 15.76 5.98718 16.158 6.38515 16.158H22.7182L12.5867 26.2894C12.4043 26.4718 12.3214 26.6542 12.3214 26.9527V29.6224C12.3214 29.9374 12.537 30.153 12.852 30.153H15.5217C15.8367 30.153 16.0191 30.0701 16.1849 29.8877L26.3164 19.7562V36.0892C26.3164 36.4872 26.7143 36.6696 26.9797 36.4043L30.6111 32.7895C30.8266 32.5573 30.9593 32.3418 30.9593 31.977Z" fill="#191E3B"/><path d="M85.7777 27.3176L93.1731 17.1033C93.3887 16.7882 93.2229 16.4731 92.8581 16.4731H88.8287C88.6132 16.4731 88.3313 16.5561 88.1986 16.7882L83.3236 23.9018L78.3325 16.7882C78.1998 16.5726 77.9345 16.4731 77.7024 16.4731H73.4077C73.1922 16.4731 73.0429 16.6555 73.0429 16.8379C73.0429 16.9209 73.0429 17.0203 73.1258 17.1033L80.5379 27.3508L72.3631 38.5932C72.1475 38.9082 72.3133 39.2233 72.6284 39.2233H76.6909C76.9065 39.2233 77.1884 39.1404 77.321 38.9082L82.9754 30.7666L88.7127 38.9082C88.8453 39.1404 89.1106 39.2233 89.3428 39.2233H93.6706C93.8862 39.2233 94.0354 39.0409 94.0354 38.8585C94.0354 38.7756 93.9856 38.6761 93.9525 38.5932L85.7777 27.3176Z" fill="#191E3B"/><path d="M69.2622 7.93359C69.5773 7.93359 69.7928 8.14916 69.7928 8.46421V11.4987C69.7928 11.8137 69.5773 12.0293 69.2622 12.0293H54.8195V21.0497H67.7865C68.1015 21.0497 68.3171 21.2653 68.3171 21.5804V24.5982C68.3171 24.9133 68.1015 25.1288 67.7865 25.1288H54.8195V35.0116H69.2622C69.5773 35.0116 69.7928 35.2271 69.7928 35.5422V38.6761C69.7928 38.9912 69.5773 39.2067 69.2622 39.2067H52.3654C51.0721 39.2067 50.0938 38.2284 50.0938 36.935V10.2053C50.0938 8.91192 51.0721 7.93359 52.3654 7.93359H69.2622" fill="#191E3B"/><path d="M109.256 15.7603C104.879 15.7603 102.557 17.6837 101.214 19.4746V17.0039C101.214 16.6888 100.999 16.4733 100.684 16.4733H97.1517C96.8367 16.4733 96.6211 16.7054 96.6211 17.0039V46.453C96.6211 46.7681 96.8367 46.9837 97.1517 46.9837H100.733C101.048 46.9837 101.264 46.7681 101.264 46.453V36.305C102.557 38.0958 104.879 39.8867 109.256 39.8867C116.37 39.8867 120.515 34.5308 120.515 27.8152C120.515 21.0996 116.37 15.7603 109.256 15.7603ZM108.46 36.0397C104.083 36.0397 101.082 33.0882 101.082 27.8649C101.082 22.6417 104.083 19.5906 108.46 19.5906C112.838 19.5906 115.79 22.6251 115.79 27.8649C115.79 33.0882 112.838 36.0397 108.46 36.0397Z" fill="#191E3B"/><path d="M134.61 15.7603C128.392 15.7603 123.434 20.2373 123.434 27.6494C123.434 35.2438 127.811 39.9033 135.19 39.9033C139.435 39.9033 142.967 38.0295 145.156 35.4262C145.288 35.2935 145.338 35.1609 145.338 35.0282C145.338 34.8956 145.288 34.7629 145.156 34.6303L143.1 32.6073C142.967 32.4746 142.834 32.4249 142.702 32.4249C142.569 32.4249 142.436 32.5078 142.304 32.6405C140.612 34.481 138.407 36.0397 135.24 36.0397C130.613 36.0397 128.392 33.1877 128.043 29.0754H145.205C145.52 29.0754 145.736 28.8432 145.736 28.5448V27.6494C145.736 20.8508 141.624 15.7603 134.61 15.7603ZM128.209 25.5932C128.74 21.8623 130.696 19.4248 134.577 19.4248C138.556 19.4248 140.662 21.6965 140.96 25.5932H128.209Z" fill="#191E3B"/><path d="M209.642 16.4728H206.11C205.795 16.4728 205.579 16.6884 205.579 17.0034V19.5073C204.236 17.7164 201.915 15.793 197.438 15.793C190.424 15.793 186.262 21.1489 186.262 27.8645C186.262 34.5801 190.424 39.936 197.438 39.936C201.915 39.936 204.236 38.0125 205.579 36.2217V38.6758C205.579 38.9908 205.795 39.2064 206.11 39.2064H209.642C209.957 39.2064 210.173 38.9908 210.173 38.6758V17.0034C210.189 16.6884 209.957 16.4728 209.642 16.4728ZM198.333 36.089C193.956 36.089 191.004 33.0546 191.004 27.8147C191.004 22.5915 193.956 19.6399 198.333 19.6399C202.711 19.6399 205.712 22.5915 205.712 27.8147C205.712 33.0546 202.711 36.089 198.333 36.089Z" fill="#191E3B"/><path d="M172.021 7.93359H168.439C168.124 7.93359 167.909 8.14916 167.909 8.46421V19.5076C166.565 17.7168 164.294 15.7933 159.817 15.7933C152.803 15.7933 148.641 21.1492 148.641 27.8648C148.641 34.5804 152.803 39.9363 159.817 39.9363C164.294 39.9363 166.615 38.0129 167.958 36.222V38.6761C167.958 38.9912 168.174 39.2067 168.489 39.2067H172.021C172.336 39.2067 172.551 38.9912 172.551 38.6761V8.46421C172.551 8.14916 172.336 7.93359 172.021 7.93359ZM160.712 36.0894C156.335 36.0894 153.383 33.0549 153.383 27.8151C153.383 22.5918 156.335 19.6403 160.712 19.6403C165.09 19.6403 168.091 22.5918 168.091 27.8151C168.091 33.0549 165.09 36.0894 160.712 36.0894Z" fill="#191E3B"/><path d="M181.754 7.93359C182.069 7.93359 182.284 8.14916 182.284 8.46421V12.1288C182.284 12.4438 182.069 12.6594 181.754 12.6594H178.089C177.774 12.6594 177.559 12.4438 177.559 12.1288V8.46421C177.559 8.14916 177.774 7.93359 178.089 7.93359H181.754Z" fill="#191E3B"/><path d="M181.718 16.4731C182.033 16.4731 182.248 16.6887 182.248 17.0038V38.6761C182.248 38.9911 182.033 39.2067 181.718 39.2067H178.136C177.821 39.2067 177.605 38.9911 177.605 38.6761V17.0038C177.605 16.6887 177.821 16.4731 178.136 16.4731H181.718Z" fill="#191E3B"/></g><defs><clipPath id="clip0_2640_228734"><rect fill="white" height="42.3" transform="translate(0 4.7002)" width="210.157"/></clipPath></defs></svg>