<svg xmlns="http://www.w3.org/2000/svg" version="1.1" id="Layer_1" x="0" y="0" viewBox="0 0 3415 512" xml:space="preserve" class="logo-svg" enable-background="new 0 0 3415 512"><style>.logo-svg .st2{fill-rule:evenodd;clip-rule:evenodd;fill:#fff}</style><g id="GeekyAntsFullLogoLightTheme"><g id="Group-4"><g id="Oval"><circle id="path-1_1_" class="st0" cx="256" cy="256" r="256" fill-rule="evenodd" clip-rule="evenodd" fill="#ca0000"/></g><defs><filter id="Adobe_OpacityMaskFilter" filterUnits="userSpaceOnUse" x="99" y="127" width="315" height="492"><feColorMatrix values="1 0 0 0 0 0 1 0 0 0 0 0 1 0 0 0 0 0 1 0"/></filter></defs><mask maskUnits="userSpaceOnUse" x="99" y="127" width="315" height="492" id="mask-2_1_"><g class="st1" filter="url(#Adobe_OpacityMaskFilter)"><circle id="path-1_2_" class="st2" cx="256" cy="256" r="256"/></g></mask><g id="Group-3" class="st3" mask="url(#mask-2_1_)"><g transform="translate(99 127)"><ellipse id="Oval_1_" class="st2" cx="26.5" cy="26" rx="26.5" ry="26"/><ellipse id="Oval-Copy" class="st2" cx="288.5" cy="26" rx="26.5" ry="26"/><circle id="Oval-Copy-2" class="st2" cx="160" cy="215" r="95"/><circle id="Oval-Copy-3" class="st2" cx="160" cy="397" r="95"/><path id="Path-6-Copy" class="st2" d="M269.3 36c-29.1 22.5-50.8 50.5-64.9 83.9-21.2 50.1-6.2 57.6 13.7 11.3 13.3-30.9 35-59.7 64.9-86.4L269.3 36z"/><path id="Path-6-Copy-2" class="st2" d="M47.7 36c29.1 22.5 50.8 50.5 64.9 83.9 21.2 50.1 6.2 57.6-13.7 11.3C85.6 100.3 64 71.5 34 44.8L47.7 36z"/><path id="Path-7" class="st2" d="M126 301v12h68v-12h-68z"/></g></g></g><path id="GekyAnts" d="M796.8 467.7c35.1 0 67.4-5.2 96.9-15.6s51.8-24.1 67.1-41.1V241.7H792.2V310h69.1v64c-12.6 11.5-31.9 17.3-57.8 17.3-30.2 0-52.3-10.3-66.4-31S716 308.6 716 267.4v-24.9c.2-39.3 7.1-69.5 20.7-90.6s32.9-31.7 57.8-31.7c20.8 0 36.8 4.9 48.1 14.7s18.7 26.2 22.1 49.3h95.7c-4.7-46.6-21.3-81.7-49.7-105.2S842.4 43.7 791 43.7c-35.1 0-66 8.2-92.7 24.5s-47.2 39.6-61.6 70-21.5 65.8-21.5 106.3l.3 35.7c2.3 58.9 19.5 104.9 51.8 137.9s75.5 49.6 129.5 49.6zm365.6 0c25.1 0 48.6-4.9 70.4-14.6s38.7-22.8 50.6-39.2l-43.6-51.5c-17 21.1-40.6 31.7-70.8 31.7-18.3 0-33.2-4.9-44.7-14.7s-19-23.3-22.4-40.5h189.7v-37.1c0-47.8-12.5-85-37.4-111.7s-58.9-40.1-102-40.1c-30.6 0-57 6.6-79.3 19.7s-39.2 31.7-50.8 55.6-17.4 51.6-17.4 83v7.9c0 44.9 14.5 81.4 43.6 109.5 29 27.9 67.1 42 114.1 42zm35.7-188.6h-96.3c5.3-37 21.9-55.5 49.8-55.5 15.1 0 26.7 4.2 34.8 12.6s12 20.2 11.6 35.5v7.4zM1714.9 462v-87.2l26.9-26.9 66.8 114.1H1918l-114.4-180.4 107.3-126h-114.4l-71.9 89.5-9.6 12.7V26.7h-95.4V462h95.3zm272.4 123.8c44.9 0 76.3-19.8 94-59.5l5.4-13 124.9-357.7h-102.2l-51 172.8-48.4-172.8h-102l106.5 309.3-7.6 20.4c-3.4 10-8.6 16.9-15.7 20.8s-17.3 5.8-30.7 5.8H1948v68.3c13.8 3.7 26.9 5.6 39.3 5.6zM2315 462l23.8-77H2475l24.1 77h106.8L2453.5 49.7H2360L2208.8 462H2315zm136.2-153.8h-88.6l44.2-143 44.4 143zM2711.5 462V245.6c9.1-14.7 22.9-22.1 41.6-22.1 16.4 0 27.8 3.6 34 10.9s9.3 18.6 9.3 34.1V462h95.7V264.6c-.6-38.3-8.7-67-24.5-86.1s-39.6-28.6-71.5-28.6c-37.2 0-66.4 13.9-87.5 41.6l-3.1-36H2616V462h95.5zm345.5 5.7c18.7 0 36.6-2.7 53.8-8.2v-68.3c-6.4 1.1-14.3 1.7-23.8 1.7-12.3 0-20.5-2.3-24.6-6.8s-6.2-12.6-6.2-24.1V221.8h50.4v-66.3h-50.4V79.4h-95.4v76.2h-39.1v66.3h39.1V374c0 31.5 7.8 55 23.5 70.5s39.8 23.2 72.7 23.2zm205.9 0c39.5 0 71.6-8.8 96.4-26.3s37.2-40.3 37.2-68.3c0-41-23-69.4-69.1-85.2-13.8-4.7-29.8-8.8-48-12.2s-31.5-7.7-39.8-13-12.5-12.2-12.5-20.7c0-8.3 3.4-15.2 10.2-20.8s15.2-8.4 25.2-8.4c25.9 0 38.8 12.3 38.8 36.8h95.7c0-29.8-12.3-53.9-36.8-72.2s-57-27.5-97.4-27.5c-37.6 0-68 9.1-91.2 27.3s-34.8 41.4-34.8 69.5c0 15.9 4.1 29.9 12.2 42.2s19.9 22.7 35.4 31.3 35.1 15.5 58.9 20.8 39.9 10.4 48.4 15.3 12.7 11.4 12.7 19.5c0 8.5-3.3 15.4-9.8 20.7s-16.3 7.9-29.3 7.9c-14.2 0-25.8-3.3-34.8-9.8s-13.8-16.9-14.2-31h-89.2c0 17.9 5.8 35 17.3 51.3s27.6 29.1 48.1 38.5 44.1 14.3 70.4 14.3z"/><path id="e" d="M1449.4 467.7c-25.1 0-48.6-4.9-70.4-14.6s-38.7-22.8-50.6-39.2l43.6-51.5c17 21.1 40.6 31.7 70.8 31.7 18.3 0 33.2-4.9 44.7-14.7s19-23.3 22.4-40.5h-189.7v-37.1c0-47.8 12.5-85 37.4-111.7s58.9-40.1 102-40.1c30.6 0 57 6.6 79.3 19.7s39.2 31.7 50.8 55.6 17.4 51.6 17.4 83v7.9c0 44.9-14.5 81.4-43.6 109.5s-67.1 42-114.1 42zm-35.7-188.6h96.3c-5.3-37-21.9-55.5-49.8-55.5-15.1 0-26.7 4.2-34.8 12.6s-12 20.2-11.6 35.5v7.4z"/></g></svg>