<svg width="176" height="42" viewBox="0 0 176 42" fill="none" xmlns="http://www.w3.org/2000/svg">
<g clip-path="url(#clip0)">
<path d="M39.1726 41.7608C33.8162 41.7608 26.9869 38.3051 21.0414 32.5101C20.7736 33.2544 20.4523 33.9722 20.1309 34.6633C18.0687 38.8101 15.1227 41.0696 11.8286 41.0696C8.53446 41.0696 5.53493 38.8367 3.47275 34.7962C1.54448 31.1279 0.5 26.157 0.5 20.8671C0.5 12.2279 3.36563 4.94431 7.99883 1.83418C11.2126 -0.318983 15.2566 -0.584806 19.6756 1.0633C23.425 2.44557 27.469 5.21013 31.4595 9.11773C31.8076 8.18735 32.2361 7.25697 32.745 6.37975C34.8339 2.7114 37.7531 0.691143 40.9401 0.691143C47.3141 0.691143 52.108 9.35697 52.108 20.8671C52.108 25.8646 51.1975 30.4367 49.4567 34.1317C48.7068 35.8063 47.6623 37.3215 46.4036 38.6772C45.3055 39.8734 43.9129 40.7772 42.3596 41.3089C41.3419 41.6013 40.2706 41.7608 39.1726 41.7608ZM21.8717 29.8519C29.3437 37.6139 37.3782 40.3253 41.6097 38.943C43.779 38.2253 45.7608 36.1519 47.207 33.0684C48.7871 29.719 49.6174 25.4924 49.6174 20.8671C49.6174 15.976 48.68 11.4304 46.9392 8.05443C45.3055 4.89114 43.1898 3.13671 40.9401 3.13671C37.6996 3.13671 34.8875 6.35317 33.3877 11.1114C39.4136 17.7038 43.3773 25.7582 43.0291 30.9152C42.8952 32.776 42.2257 34.238 41.074 35.1949L40.9669 35.2747C39.6814 36.1253 38.1816 36.1785 36.7087 35.381C32.8789 33.3608 29.7722 25.9443 29.7722 18.9C29.7722 16.5076 30.04 14.1152 30.6292 11.776C22.4876 3.37595 14.5603 0.425321 9.39147 3.88102C5.48137 6.48608 2.9639 13.1582 2.9639 20.8671C2.9639 30.8354 6.84723 38.6241 11.8018 38.6241C14.8817 38.6241 17.5598 35.4342 19.0864 30.5165C15.1227 26.1038 12.1232 21.1861 10.6234 16.6139C9.17722 12.1481 9.33791 8.53292 11.0787 6.72532C12.2035 5.5557 13.864 5.2633 15.6316 5.98102C19.2739 7.44304 22.9965 12.9456 22.9965 20.6279C22.9965 23.738 22.6216 26.8215 21.8717 29.8519ZM32.6914 14.0354C32.3968 15.6304 32.2629 17.2785 32.2629 18.9C32.2629 25.5722 35.2357 31.7924 37.887 33.2013C38.6905 33.6266 39.1993 33.4671 39.5475 33.2279C40.1367 32.7228 40.4849 31.8722 40.5652 30.7557C40.833 26.5823 37.5924 19.8038 32.6914 14.0354ZM13.7836 8.05443C13.4355 8.05443 13.1141 8.18735 12.8731 8.42659C12.0696 9.25064 11.6411 11.6962 12.9802 15.843C14.2122 19.6709 16.6225 23.7646 19.8363 27.5658C20.2916 25.2532 20.5058 22.9405 20.479 20.6013C20.5058 13.2911 16.9439 9.17089 14.6942 8.26709C14.3996 8.13418 14.105 8.08102 13.7836 8.05443Z" fill="#47D7AC"/>
<path d="M67.6152 27.4861V14.3013H70.9094V16.4544C71.4182 15.657 72.1413 15.0456 72.9983 14.6734C74.016 14.1949 75.1141 13.9557 76.2121 13.9823C78.9171 13.9823 80.5507 14.9127 81.1131 16.8C81.3274 17.4911 81.4345 18.4481 81.4345 19.6975V27.5127H78.0868V20.4684C78.0868 19.4051 77.9529 18.6608 77.7119 18.2354C77.3102 17.438 76.3996 17.0392 75.0337 17.0392C74.2303 17.0392 73.4268 17.2253 72.7037 17.5975C72.0074 17.9165 71.4182 18.3949 70.9897 19.0329V27.4861H67.6152Z" fill="#13294B"/>
<path d="M96.192 27.9114C94.5316 27.9114 93.5139 27.3532 93.1389 26.2101C92.1212 27.4329 90.5143 28.0443 88.2915 28.0443C86.6042 28.0443 85.2919 27.6722 84.3546 26.9013C83.444 26.1836 82.9352 25.0937 82.9619 23.9506C82.9619 22.0101 83.9529 20.7608 85.9615 20.176C87.2202 19.8304 88.8003 19.6443 90.7018 19.6443C91.3446 19.6443 92.0141 19.6975 92.6569 19.8038V19.3785C92.6836 18.8203 92.4962 18.262 92.1212 17.8367C91.6392 17.3317 90.7286 17.0924 89.3895 17.0924C87.2738 17.0924 85.5598 17.6241 84.1939 18.6608H84.0868V15.6836C85.7204 14.6468 87.7291 14.1152 90.1126 14.1152C92.0409 14.1152 93.4871 14.4874 94.4512 15.2051C94.9869 15.6038 95.3886 16.1355 95.6296 16.7469C95.8707 17.3582 96.0046 18.1823 96.0046 19.219C96.0046 19.538 96.0046 20.1228 95.9778 20.9203C95.9778 21.7443 95.951 22.3025 95.951 22.6481C95.951 23.6317 96.0046 24.2165 96.0849 24.4025C96.2188 24.7747 96.5938 24.9608 97.1562 24.9608C97.5311 24.9608 97.8793 24.9076 98.2274 24.8013V27.5127C97.7186 27.8051 97.049 27.9114 96.192 27.9114ZM92.6569 22.2228C92.0141 22.1165 91.3713 22.0899 90.7286 22.0899C89.7912 22.0633 88.8539 22.1696 87.9433 22.3557C86.8988 22.595 86.3632 23.1 86.3632 23.8975C86.3632 24.9608 87.247 25.4924 88.9878 25.4924C90.6215 25.4924 91.8534 25.0139 92.6836 24.0304C92.6569 23.6848 92.6569 23.0734 92.6569 22.2228Z" fill="#13294B"/>
<path d="M100.262 28.576H100.369C101.923 29.719 103.905 30.2772 106.315 30.2772C108.19 30.2772 109.529 29.8519 110.305 29.0279C110.841 28.4696 111.109 27.5658 111.109 26.2633V25.2798C110.734 25.8911 110.091 26.4228 109.154 26.8481C108.163 27.3 107.065 27.5127 105.994 27.4861C103.878 27.4861 102.137 26.9544 100.771 25.8646C99.4054 24.7747 98.7358 23.2063 98.709 21.1329C98.6823 20.0165 98.9233 18.9 99.3786 17.8899C99.7803 17.0127 100.423 16.2418 101.2 15.6836C101.923 15.1785 102.753 14.7798 103.583 14.5139C104.414 14.2481 105.297 14.1418 106.181 14.1418C107.252 14.1152 108.297 14.3279 109.288 14.7C110.225 15.0722 110.841 15.5506 111.136 16.1089V14.5139H114.349V26.1038C114.349 27.9911 114.001 29.4266 113.305 30.4633C112.046 32.2975 109.716 33.2013 106.288 33.2013C105.083 33.2013 103.878 33.0684 102.699 32.8025C101.628 32.5367 100.798 32.2177 100.236 31.819L100.262 28.576ZM111.002 19.0063C110.654 18.3418 110.091 17.8101 109.395 17.5177C108.591 17.1456 107.708 16.9595 106.824 16.9861C105.645 16.9595 104.494 17.3051 103.53 17.9962C102.619 18.6608 102.164 19.6975 102.164 21.0532C102.164 22.2228 102.619 23.1 103.503 23.7114C104.467 24.3494 105.619 24.6418 106.77 24.6152C107.654 24.6152 108.538 24.4291 109.341 24.0836C110.038 23.7911 110.627 23.2861 111.029 22.6481L111.002 19.0063Z" fill="#13294B"/>
<path d="M129.105 27.9114C127.444 27.9114 126.427 27.3532 126.052 26.2101C125.034 27.4329 123.427 28.0443 121.231 28.0443C119.544 28.0443 118.231 27.6722 117.294 26.9013C116.383 26.1836 115.875 25.0937 115.901 23.9506C115.901 22.0101 116.892 20.7608 118.901 20.176C120.16 19.8304 121.74 19.6443 123.641 19.6443C124.284 19.6443 124.954 19.6975 125.596 19.8038V19.4051C125.623 18.8468 125.436 18.2886 125.061 17.8633C124.579 17.3582 123.668 17.119 122.329 17.119C120.213 17.119 118.499 17.6506 117.133 18.6874H116.999V15.6836C118.633 14.6468 120.642 14.1152 123.025 14.1152C124.954 14.1152 126.4 14.4874 127.364 15.2051C127.9 15.6038 128.301 16.1355 128.542 16.7469C128.783 17.3582 128.917 18.1823 128.917 19.219C128.917 19.538 128.917 20.1228 128.89 20.9203C128.864 21.7443 128.864 22.3025 128.864 22.6481C128.864 23.6317 128.917 24.2165 128.998 24.4025C129.131 24.7747 129.506 24.9608 130.069 24.9608C130.444 24.9608 130.792 24.9076 131.14 24.8013V27.5127C130.631 27.8051 129.962 27.9114 129.105 27.9114ZM125.57 22.2228C124.927 22.1165 124.284 22.0899 123.641 22.0899C122.704 22.0633 121.767 22.1696 120.856 22.3557C119.812 22.595 119.276 23.1 119.276 23.8975C119.276 24.9608 120.133 25.4924 121.9 25.4924C123.534 25.4924 124.766 25.0139 125.596 24.0304C125.57 23.6848 125.57 23.0734 125.57 22.2228Z" fill="#13294B"/>
<path d="M132.613 27.6987V14.4873H135.907V16.7202C136.148 16.0557 136.657 15.4709 137.434 14.9392C138.264 14.381 139.255 14.1152 140.246 14.1418C141.023 14.1418 141.639 14.2747 142.067 14.5139V17.8367H141.96C141.317 17.5443 140.621 17.4114 139.925 17.438C139.041 17.4114 138.157 17.5975 137.38 17.943C136.764 18.2354 136.256 18.7405 136.015 19.3519V27.6721L132.613 27.6987Z" fill="#13294B"/>
<path d="M166.653 26.0772C165.207 27.3798 163.332 28.0443 161.029 28.0443C158.726 28.0443 156.851 27.4063 155.432 26.1038C154.012 24.8013 153.289 23.1266 153.289 21.0798C153.289 19.0329 154.012 17.3582 155.485 16.0823C156.931 14.7798 158.806 14.1418 161.109 14.1418C163.466 14.1418 165.341 14.7798 166.733 16.0557C168.126 17.3317 168.822 19.0063 168.822 21.1063C168.796 23.1 168.072 24.7747 166.653 26.0772ZM164.243 18.1823C163.439 17.4114 162.422 17.0393 161.056 17.0393C159.717 17.0393 158.672 17.4114 157.842 18.1823C157.012 18.9266 156.556 19.9899 156.583 21.0798C156.556 22.1962 157.012 23.2595 157.869 23.9772C158.726 24.7215 159.77 25.0671 161.056 25.0671C162.368 25.0671 163.412 24.6949 164.216 23.9241C165.019 23.1798 165.448 22.143 165.421 21.0532C165.475 19.9899 165.046 18.9532 164.243 18.1823Z" fill="#13294B"/>
<path d="M143.594 27.6987V14.4873H146.888V16.7202C147.129 16.0557 147.638 15.4709 148.414 14.9392C149.245 14.381 150.236 14.1152 151.226 14.1418C152.003 14.1418 152.619 14.2747 153.048 14.5139V17.8367H152.941C152.298 17.5443 151.601 17.4114 150.905 17.438C150.021 17.4114 149.138 17.5975 148.361 17.943C147.745 18.2354 147.236 18.7405 146.968 19.3519V27.6721L143.594 27.6987Z" fill="#13294B"/>
</g>
<defs>
<clipPath id="clip0">
<rect width="175.304" height="42" fill="white" transform="translate(0.5)"/>
</clipPath>
</defs>
</svg>
